<?xml version="1.0" encoding="utf-8"?>
<!-- Generator: Adobe Illustrator 26.4.1, SVG Export Plug-In . SVG Version: 6.00 Build 0)  -->
<svg version="1.1" id="Layer_1" xmlns="http://www.w3.org/2000/svg" xmlns:xlink="http://www.w3.org/1999/xlink" x="0px" y="0px"
	 viewBox="0 0 1000 1000" style="enable-background:new 0 0 1000 1000;" xml:space="preserve">
<g id="_x39_2iC3P.tif">
	<g>
		<path d="M403.26,214.98c33.32,0,64.6,0,96.96,0c-15.24,22.2-8.63,46.69-8.94,70.29c-0.32,24.92,0.51,49.86,0.32,74.78
			c-0.06,7.53,2.08,7.93,7.76,4.47c14.65-8.93,30-10.04,46-3.86c4.22,1.63,6.36,3.17,3.46,8.18c-5.77,9.96-10.89,20.3-16.7,31.26
			c-8.85-11.9-19.93-13.31-32.65-9.46c-5.36,1.62-7.47,4.16-7.38,10.01c0.72,44.51,1.05,89.03,1.61,133.54
			c0.2,16.31,1.71,32.68,0.75,48.92c-0.95,16.18,3.29,28.62,17.83,37.64c-36.62,0-73.23,0-109.85,0c0.1-0.42,0.05-1.16,0.35-1.35
			c17.35-11.05,24.1-26.07,23.13-47.25c-2.08-45.61-2.81-91.32-1.99-136.89c-3.52-1.59-5.34,1.01-7.47,2.18
			c-14.78,8.14-29.18,17.14-45.78,21.23c-3.56,0.88-4.01,2.57-4.01,5.49c0.04,35.32,0.02,70.65,0.06,105.97
			c0.01,5.73,2.96,10.23,6.86,13.99c3.98,3.84,8.39,7.23,13.43,11.51c-38.66,0-76.37,0-114.1,0c0.14-0.55,0.12-1.29,0.43-1.48
			c18.47-11.25,26.07-26.97,24.64-49.14c-1.72-26.61-0.63-53.41-0.28-80.12c0.09-6.98-1.39-10.85-8.59-13.73
			c-14.48-5.8-26.83-15.08-36.04-28.01c-2.58-3.62-4.64-7.52-6.1-11.79c-5.03-14.64-2.16-21.04,12.37-25.66
			c7.64-2.43,15.31-5.41,24.74-4.28c-3.12,5.25-8.12,5.01-11.77,6.89c-13.44,6.91-15.89,18.05-6.13,29.75
			c6.95,8.34,16.66,12.07,26.53,15.44c3.32,1.13,5.09,0.1,4.86-3.67c-0.13-2.07-0.01-4.15-0.01-6.23c0-47.79,0-95.58,0-143.37
			c0-27.66,0-27.66-17.22-48.74c32.02,0,63.54,0,96.7,0c-12.57,14.97-10.35,32.4-10.36,49.41c-0.03,49.27-0.02,98.55-0.01,147.82
			c0,10.49,0.17,10.85,9.42,7.09c15.99-6.5,29.88-16.83,44.82-25.25c2.79-1.57,2.63-4.34,2.6-7.04
			c-0.64-51.92-1.17-103.85-1.98-155.77C421.34,234.7,413.98,224.98,403.26,214.98z"/>
		<path d="M546.32,435.72c10.27,4.2,19.22,7.85,29.1,11.89c-0.51-15.91-3.95-30.35-6.03-44.92c-4.74-33.12-10.19-66.14-15.35-99.2
			c-2.28-14.62-4.39-29.27-6.88-43.86c-0.9-5.26-0.02-7.37,6.02-7.3c27,0.31,54.01,0.28,81.01,0.01c5.56-0.06,7.27,1.66,6.97,7.09
			c-0.41,7.38-0.1,14.8-0.1,23.38c16.3-6.84,31.87-13.12,47.2-19.94c5.21-2.32,8.19-1.87,11.67,3.01
			c14.29,20.04,29.04,39.75,43.62,59.59c10.77,14.66,13.56,30.51,10.76,48.72c-3.91,25.45-6.07,51.23-7.75,76.95
			c-0.82,12.58-3.82,21.22-16.78,26.35c-14.52,5.75-28.12,13.89-41.88,21.45c-4.45,2.45-6.78,1.89-10.42-1.66
			c-11.9-11.58-24.39-22.56-35.92-33.09c0,34.94,0,72.52,0,110.1c-0.67,0.2-1.33,0.39-2,0.59c-6.76-9.7-13.53-19.39-20.29-29.09
			c-0.61,0.18-1.23,0.36-1.84,0.55c1.24,45.46,2.47,90.92,3.78,139.04c-6.83-9.27-12.27-16.66-19.32-26.23
			c-4.05,43.5-7.89,84.69-11.72,125.88c-0.68,0-1.36,0-2.04,0c-13.28-73.46-26.56-146.93-40.17-222.24
			c7.89,4.52,14.2,8.14,21.89,12.54C561.92,528.29,554.21,482.54,546.32,435.72z M641.07,376.07c0,14.23-0.17,28.47,0.03,42.69
			c0.49,34.21-5.46,27.45,27.35,42.88c10.07,4.74,21.37-2.84,21.03-14.15c-0.71-23.99-1.42-47.98-2.33-71.96
			c-1.02-26.95-2.4-53.89-3.32-80.84c-0.2-5.76-1.75-6.51-6.69-3.98c-10,5.11-20.09,10.07-30.39,14.54
			c-4.6,1.99-5.83,4.68-5.78,9.44C641.21,335.15,641.07,355.61,641.07,376.07z"/>
	</g>
</g>
</svg>
